<svg xmlns="http://www.w3.org/2000/svg" viewBox="0 0 1200 900" role="img">
  <defs>
    <linearGradient id="bg" x1="0" x2="1" y1="0" y2="1">
      <stop offset="0" stop-color="#fffaf5"/>
      <stop offset="1" stop-color="#dce6d8"/>
    </linearGradient>
    <filter id="s" x="-20%" y="-20%" width="140%" height="140%">
      <feDropShadow dx="0" dy="24" stdDeviation="24" flood-color="#6f574e" flood-opacity=".12"/>
    </filter>
  </defs>
  <rect width="1200" height="900" fill="url(#bg)"/>
  <rect x="235" y="180" width="730" height="540" rx="56" fill="#fffaf6" filter="url(#s)"/>
  <rect x="310" y="270" width="330" height="58" rx="29" fill="#e7d7d4"/>
  <rect x="310" y="360" width="470" height="58" rx="29" fill="#f0e4dc"/>
  <rect x="310" y="450" width="390" height="58" rx="29" fill="#dce6d8"/>
  <rect x="490" y="570" width="400" height="70" rx="35" fill="#91624d"/>
  <circle cx="866" cy="302" r="52" fill="#d4b280"/>
  <path d="M820 392 C900 330 1010 360 1052 450 C950 504 860 494 820 392Z" fill="#cfd8cc"/>
  <path d="M144 580 C234 500 370 520 430 626 C310 688 208 684 144 580Z" fill="#b9876d" opacity=".35"/>
</svg>
