<svg xmlns="http://www.w3.org/2000/svg" viewBox="0 0 1200 900" role="img">
  <defs>
    <linearGradient id="bg" x1="0" x2="1" y1="0" y2="1">
      <stop offset="0" stop-color="#fbf6f0"/>
      <stop offset="1" stop-color="#ead9cf"/>
    </linearGradient>
    <filter id="s" x="-20%" y="-20%" width="140%" height="140%">
      <feDropShadow dx="0" dy="28" stdDeviation="26" flood-color="#6f574e" flood-opacity=".13"/>
    </filter>
  </defs>
  <rect width="1200" height="900" fill="url(#bg)"/>
  <rect x="215" y="170" width="770" height="520" rx="64" fill="#fffaf6" filter="url(#s)"/>
  <circle cx="420" cy="420" r="116" fill="#e7d7d4"/>
  <path d="M330 558 C390 475 470 475 528 558 C478 620 382 622 330 558Z" fill="#b9876d"/>
  <rect x="610" y="300" width="250" height="24" rx="12" fill="#91624d" opacity=".36"/>
  <rect x="610" y="366" width="310" height="18" rx="9" fill="#7b6c66" opacity=".18"/>
  <rect x="610" y="416" width="260" height="18" rx="9" fill="#7b6c66" opacity=".16"/>
  <rect x="610" y="515" width="220" height="62" rx="31" fill="#91624d"/>
  <path d="M850 190 C950 140 1060 174 1092 270 C988 312 894 290 850 190Z" fill="#cfd8cc"/>
</svg>
