<svg xmlns="http://www.w3.org/2000/svg" viewBox="0 0 1200 900" role="img">
  <defs>
    <linearGradient id="bg" x1="0" x2="1" y1="0" y2="1">
      <stop offset="0" stop-color="#f9f5ef"/>
      <stop offset="1" stop-color="#dbe4d7"/>
    </linearGradient>
  </defs>
  <rect width="1200" height="900" fill="url(#bg)"/>
  <path d="M220 642 C420 520 780 530 980 642 C804 760 396 760 220 642Z" fill="#fffaf6" opacity=".85"/>
  <rect x="375" y="300" width="150" height="340" rx="50" fill="#93a985"/>
  <rect x="560" y="250" width="150" height="390" rx="50" fill="#cfd8cc"/>
  <rect x="745" y="345" width="128" height="295" rx="48" fill="#b9876d"/>
  <path d="M210 255 C310 175 466 198 520 304 C392 366 276 360 210 255Z" fill="#8da17f"/>
  <path d="M734 165 C858 98 1010 138 1068 262 C918 326 800 300 734 165Z" fill="#e7d7d4"/>
</svg>
