<svg xmlns="http://www.w3.org/2000/svg" viewBox="0 0 1200 900" role="img">
  <defs>
    <linearGradient id="bg" x1="0" x2="1" y1="0" y2="1">
      <stop offset="0" stop-color="#fbf7f1"/>
      <stop offset="0.55" stop-color="#ead8ce"/>
      <stop offset="1" stop-color="#cfd8cc"/>
    </linearGradient>
    <linearGradient id="glass" x1="0" x2="1" y1="0" y2="1">
      <stop offset="0" stop-color="#fffaf5"/>
      <stop offset="1" stop-color="#c08c72"/>
    </linearGradient>
    <filter id="shadow" x="-20%" y="-20%" width="140%" height="140%">
      <feDropShadow dx="0" dy="28" stdDeviation="28" flood-color="#785847" flood-opacity=".16"/>
    </filter>
  </defs>
  <rect width="1200" height="900" fill="url(#bg)"/>
  <path d="M0 680 C260 610 360 760 580 700 C820 635 900 500 1200 570 L1200 900 L0 900 Z" fill="#fff9f3" opacity=".86"/>
  <circle cx="930" cy="196" r="160" fill="#e8d7d2" opacity=".48"/>
  <circle cx="242" cy="185" r="118" fill="#d4b280" opacity=".22"/>
  <g filter="url(#shadow)">
    <rect x="320" y="372" width="190" height="330" rx="56" fill="#af765d"/>
    <rect x="347" y="330" width="136" height="96" rx="32" fill="#3b302b"/>
    <rect x="378" y="260" width="74" height="94" rx="22" fill="#2d2521"/>
    <path d="M620 310 C720 270 815 318 844 414 C890 567 760 696 608 675 C490 658 440 556 486 451 C512 390 552 336 620 310Z" fill="url(#glass)"/>
    <circle cx="690" cy="506" r="88" fill="#f7efe8" opacity=".78"/>
    <path d="M760 646 C848 555 970 563 1040 638 C940 700 840 718 760 646Z" fill="#93a985"/>
    <path d="M156 624 C245 555 375 565 455 642 C335 706 230 720 156 624Z" fill="#c9d4c4"/>
  </g>
  <g fill="none" stroke="#91624d" stroke-opacity=".2" stroke-width="2">
    <path d="M110 120 C270 70 364 90 480 146"/>
    <path d="M730 106 C860 70 960 88 1096 170"/>
    <path d="M104 784 C238 736 364 746 498 810"/>
  </g>
</svg>
