<svg xmlns="http://www.w3.org/2000/svg" viewBox="0 0 1200 900" role="img">
  <defs>
    <linearGradient id="bg" x1="0" x2="1" y1="0" y2="1">
      <stop offset="0" stop-color="#f9f5ef"/>
      <stop offset="1" stop-color="#dfe8da"/>
    </linearGradient>
    <filter id="s" x="-20%" y="-20%" width="140%" height="140%">
      <feDropShadow dx="0" dy="26" stdDeviation="22" flood-color="#6f574e" flood-opacity=".13"/>
    </filter>
  </defs>
  <rect width="1200" height="900" fill="url(#bg)"/>
  <ellipse cx="610" cy="676" rx="410" ry="82" fill="#d8c8bc" opacity=".42"/>
  <g filter="url(#s)">
    <rect x="312" y="350" width="150" height="300" rx="46" fill="#b9866d"/>
    <rect x="512" y="280" width="170" height="370" rx="54" fill="#fff7ef"/>
    <rect x="724" y="390" width="160" height="260" rx="48" fill="#d4b280"/>
    <circle cx="596" cy="468" r="58" fill="#cfd8cc"/>
  </g>
  <path d="M180 300 C280 210 430 230 498 330 C372 410 250 416 180 300Z" fill="#8da17f"/>
  <path d="M766 198 C876 120 1014 156 1070 264 C938 326 830 312 766 198Z" fill="#a7b89a"/>
  <path d="M166 690 C240 622 352 640 408 718 C300 768 220 766 166 690Z" fill="#cfd8cc"/>
</svg>
