<svg xmlns="http://www.w3.org/2000/svg" viewBox="0 0 1200 900" role="img">
  <defs>
    <linearGradient id="bg" x1="0" x2="1" y1="0" y2="1">
      <stop offset="0" stop-color="#fffaf6"/>
      <stop offset="1" stop-color="#e9ddd3"/>
    </linearGradient>
    <filter id="s" x="-20%" y="-20%" width="140%" height="140%">
      <feDropShadow dx="0" dy="24" stdDeviation="24" flood-color="#6f574e" flood-opacity=".14"/>
    </filter>
  </defs>
  <rect width="1200" height="900" fill="url(#bg)"/>
  <rect x="120" y="124" width="470" height="632" rx="48" fill="#f7efe8" filter="url(#s)"/>
  <rect x="190" y="214" width="330" height="22" rx="11" fill="#b9876d" opacity=".35"/>
  <rect x="190" y="282" width="260" height="14" rx="7" fill="#7b6c66" opacity=".18"/>
  <rect x="190" y="320" width="310" height="14" rx="7" fill="#7b6c66" opacity=".16"/>
  <rect x="190" y="358" width="210" height="14" rx="7" fill="#7b6c66" opacity=".14"/>
  <path d="M244 610 C316 530 424 535 496 612 C400 682 310 692 244 610Z" fill="#cfd8cc"/>
  <circle cx="810" cy="316" r="164" fill="#e7d7d4"/>
  <path d="M692 560 C786 430 960 464 1040 602 C912 730 750 720 692 560Z" fill="#c4b094" opacity=".65"/>
  <path d="M760 622 C814 540 930 548 986 628 C910 686 816 696 760 622Z" fill="#8da17f"/>
</svg>
