<svg xmlns="http://www.w3.org/2000/svg" viewBox="0 0 1200 900" role="img">
  <defs>
    <linearGradient id="bg" x1="0" x2="1" y1="0" y2="1">
      <stop offset="0" stop-color="#fffaf5"/>
      <stop offset="1" stop-color="#ead9cf"/>
    </linearGradient>
    <filter id="s" x="-20%" y="-20%" width="140%" height="140%">
      <feDropShadow dx="0" dy="22" stdDeviation="20" flood-color="#6f574e" flood-opacity=".12"/>
    </filter>
  </defs>
  <rect width="1200" height="900" fill="url(#bg)"/>
  <g filter="url(#s)">
    <rect x="120" y="118" width="300" height="302" rx="28" fill="#f7efe8"/>
    <rect x="452" y="118" width="300" height="302" rx="28" fill="#e7d7d4"/>
    <rect x="784" y="118" width="300" height="302" rx="28" fill="#d9e2d6"/>
    <rect x="120" y="468" width="300" height="302" rx="28" fill="#e9ddd3"/>
    <rect x="452" y="468" width="300" height="302" rx="28" fill="#fff8f1"/>
    <rect x="784" y="468" width="300" height="302" rx="28" fill="#dac49b"/>
  </g>
  <g fill="#91624d" opacity=".42">
    <rect x="190" y="330" width="160" height="14" rx="7"/>
    <rect x="520" y="330" width="160" height="14" rx="7"/>
    <rect x="852" y="330" width="160" height="14" rx="7"/>
    <rect x="190" y="680" width="160" height="14" rx="7"/>
    <rect x="520" y="680" width="160" height="14" rx="7"/>
    <rect x="852" y="680" width="160" height="14" rx="7"/>
  </g>
  <g fill="#b9876d">
    <circle cx="270" cy="238" r="54"/>
    <rect x="566" y="194" width="72" height="118" rx="26"/>
    <circle cx="934" cy="238" r="58"/>
    <rect x="226" y="548" width="88" height="118" rx="30"/>
    <circle cx="602" cy="590" r="64"/>
    <rect x="896" y="542" width="76" height="128" rx="28"/>
  </g>
</svg>
